<svg width="11" height="11" viewBox="0 0 11 11" fill="none" xmlns="http://www.w3.org/2000/svg">
<rect width="11" height="11" fill="white"/>
<path d="M9.5518 2.11302C9.31771 1.87881 9.03976 1.69303 8.73384 1.56627C8.42792 1.43951 8.10003 1.37427 7.76889 1.37427C7.43775 1.37427 7.10985 1.43951 6.80393 1.56627C6.49801 1.69303 6.22007 1.87881 5.98597 2.11302L5.50014 2.59885L5.0143 2.11302C4.54144 1.64016 3.90011 1.37451 3.23139 1.37451C2.56266 1.37451 1.92133 1.64016 1.44847 2.11302C0.97561 2.58588 0.709961 3.22721 0.709961 3.89594C0.709961 4.56466 0.97561 5.206 1.44847 5.67885L1.9343 6.16469L5.50014 9.73052L9.06597 6.16469L9.5518 5.67885C9.78601 5.44476 9.9718 5.16681 10.0986 4.86089C10.2253 4.55497 10.2906 4.22708 10.2906 3.89594C10.2906 3.5648 10.2253 3.2369 10.0986 2.93098C9.9718 2.62506 9.78601 2.34712 9.5518 2.11302V2.11302Z" stroke="black" stroke-linecap="round" stroke-linejoin="round"/>
</svg>
